<svg xmlns="http://www.w3.org/2000/svg" width="1600" height="1000" viewBox="0 0 1600 1000" role="img" aria-label="Reservations system">
  <defs>
    <linearGradient id="bg3" x1="0" y1="0" x2="1" y2="1">
      <stop offset="0" stop-color="#111827"/>
      <stop offset="1" stop-color="#fb923c"/>
    </linearGradient>
    <filter id="shadow3" x="-30%" y="-30%" width="160%" height="160%">
      <feDropShadow dx="0" dy="18" stdDeviation="18" flood-color="#000" flood-opacity=".25"/>
    </filter>
  </defs>
  <rect width="1600" height="1000" rx="56" fill="url(#bg3)"/>
  <g opacity=".14" fill="#fff">
    <circle cx="320" cy="220" r="120"/>
    <circle cx="1320" cy="780" r="160"/>
  </g>
  <g filter="url(#shadow3)">
    <rect x="200" y="170" width="1200" height="660" rx="44" fill="#ffffff" opacity=".95"/>
  </g>
  <g transform="translate(290 250)">
    <rect width="1020" height="90" rx="18" fill="#111827" opacity=".95"/>
    <rect y="120" width="1020" height="470" rx="22" fill="#f9fafb"/>
    <rect x="30" y="150" width="190" height="140" rx="18" fill="#ffffff" stroke="#e5e7eb"/>
    <rect x="250" y="150" width="190" height="140" rx="18" fill="#ffffff" stroke="#e5e7eb"/>
    <rect x="470" y="150" width="190" height="140" rx="18" fill="#ffffff" stroke="#e5e7eb"/>
    <rect x="690" y="150" width="190" height="140" rx="18" fill="#ffffff" stroke="#e5e7eb"/>
    <rect x="30" y="322" width="940" height="90" rx="18" fill="#ffffff" stroke="#e5e7eb"/>
    <rect x="30" y="430" width="940" height="90" rx="18" fill="#ffffff" stroke="#e5e7eb"/>
    <rect x="52" y="346" width="220" height="20" rx="10" fill="#111827" opacity=".85"/>
    <rect x="52" y="380" width="420" height="16" rx="8" fill="#6b7280" opacity=".50"/>
    <rect x="52" y="454" width="240" height="20" rx="10" fill="#111827" opacity=".85"/>
    <rect x="52" y="488" width="380" height="16" rx="8" fill="#6b7280" opacity=".50"/>
    <rect x="820" y="340" width="130" height="54" rx="16" fill="#f97415"/>
    <rect x="820" y="448" width="130" height="54" rx="16" fill="#e5e7eb"/>
    <g transform="translate(58 174)" fill="#f97415">
      <rect width="32" height="32" rx="8"/>
      <rect x="54" width="32" height="32" rx="8" opacity=".55"/>
      <rect x="108" width="32" height="32" rx="8" opacity=".35"/>
    </g>
  </g>
  <g fill="#ffffff" opacity=".95">
    <text x="290" y="318" font-family="Inter, Arial, sans-serif" font-weight="800" font-size="46">Reservations</text>
  </g>
</svg>
