<svg xmlns="http://www.w3.org/2000/svg" width="1600" height="1000" viewBox="0 0 1600 1000" role="img" aria-label="Branding and customization">
  <defs>
    <linearGradient id="bg5" x1="0" y1="0" x2="1" y2="1">
      <stop offset="0" stop-color="#111827"/>
      <stop offset="1" stop-color="#fb7185"/>
    </linearGradient>
    <filter id="shadow5" x="-30%" y="-30%" width="160%" height="160%">
      <feDropShadow dx="0" dy="18" stdDeviation="18" flood-color="#000" flood-opacity=".25"/>
    </filter>
  </defs>
  <rect width="1600" height="1000" rx="56" fill="url(#bg5)"/>
  <g opacity=".14" fill="#fff">
    <circle cx="260" cy="260" r="120"/>
    <circle cx="1400" cy="220" r="90"/>
    <circle cx="1340" cy="820" r="160"/>
  </g>
  <g filter="url(#shadow5)">
    <rect x="210" y="170" width="1180" height="660" rx="44" fill="#ffffff" opacity=".95"/>
  </g>
  <g transform="translate(290 255)">
    <rect width="520" height="490" rx="26" fill="#f9fafb" stroke="#e5e7eb"/>
    <rect x="560" width="540" height="490" rx="26" fill="#f9fafb" stroke="#e5e7eb"/>

    <rect x="40" y="44" width="260" height="62" rx="20" fill="#111827" opacity=".95"/>
    <rect x="40" y="130" width="440" height="22" rx="11" fill="#6b7280" opacity=".45"/>
    <rect x="40" y="168" width="380" height="22" rx="11" fill="#6b7280" opacity=".35"/>
    <rect x="40" y="230" width="440" height="210" rx="22" fill="#ffffff" stroke="#e5e7eb"/>
    <rect x="70" y="260" width="250" height="18" rx="9" fill="#111827" opacity=".85"/>
    <rect x="70" y="294" width="360" height="16" rx="8" fill="#6b7280" opacity=".50"/>
    <rect x="70" y="326" width="320" height="16" rx="8" fill="#6b7280" opacity=".40"/>
    <rect x="70" y="372" width="170" height="44" rx="16" fill="#f97415"/>

    <rect x="600" y="44" width="460" height="62" rx="20" fill="#111827" opacity=".95"/>
    <g transform="translate(600 130)">
      <rect width="460" height="84" rx="20" fill="#ffffff" stroke="#e5e7eb"/>
      <circle cx="52" cy="42" r="22" fill="#f97415"/>
      <rect x="92" y="28" width="220" height="16" rx="8" fill="#111827" opacity=".85"/>
      <rect x="92" y="52" width="280" height="12" rx="6" fill="#6b7280" opacity=".45"/>
    </g>
    <g transform="translate(600 236)">
      <rect width="460" height="84" rx="20" fill="#ffffff" stroke="#e5e7eb"/>
      <circle cx="52" cy="42" r="22" fill="#fb7185"/>
      <rect x="92" y="28" width="180" height="16" rx="8" fill="#111827" opacity=".85"/>
      <rect x="92" y="52" width="300" height="12" rx="6" fill="#6b7280" opacity=".45"/>
    </g>
    <g transform="translate(600 342)">
      <rect width="460" height="148" rx="20" fill="#ffffff" stroke="#e5e7eb"/>
      <rect x="28" y="28" width="180" height="16" rx="8" fill="#111827" opacity=".85"/>
      <rect x="28" y="56" width="320" height="12" rx="6" fill="#6b7280" opacity=".45"/>
      <rect x="28" y="80" width="280" height="12" rx="6" fill="#6b7280" opacity=".35"/>
      <rect x="28" y="104" width="220" height="12" rx="6" fill="#6b7280" opacity=".28"/>
      <rect x="330" y="92" width="100" height="38" rx="14" fill="#f97415"/>
    </g>
  </g>
  <g fill="#ffffff" opacity=".95">
    <text x="290" y="318" font-family="Inter, Arial, sans-serif" font-weight="800" font-size="46">Branding</text>
  </g>
</svg>
