<svg xmlns="http://www.w3.org/2000/svg" width="1600" height="1000" viewBox="0 0 1600 1000" role="img" aria-label="Food ordering system">
  <defs>
    <linearGradient id="bg2" x1="0" y1="0" x2="1" y2="1">
      <stop offset="0" stop-color="#0b1220"/>
      <stop offset="1" stop-color="#f97316"/>
    </linearGradient>
    <filter id="shadow2" x="-30%" y="-30%" width="160%" height="160%">
      <feDropShadow dx="0" dy="18" stdDeviation="18" flood-color="#000" flood-opacity=".25"/>
    </filter>
  </defs>
  <rect width="1600" height="1000" rx="56" fill="url(#bg2)"/>
  <g opacity=".14" fill="#fff">
    <circle cx="240" cy="820" r="150"/>
    <circle cx="1320" cy="250" r="120"/>
  </g>
  <g filter="url(#shadow2)">
    <rect x="220" y="170" width="1160" height="660" rx="44" fill="#ffffff" opacity=".95"/>
  </g>
  <g transform="translate(310 255)">
    <rect width="360" height="490" rx="32" fill="#111827"/>
    <rect x="18" y="18" width="324" height="454" rx="26" fill="#0f172a"/>
    <rect x="44" y="60" width="272" height="52" rx="16" fill="#f3f4f6" opacity=".12"/>
    <rect x="44" y="132" width="272" height="140" rx="18" fill="#f3f4f6" opacity=".10"/>
    <rect x="44" y="290" width="272" height="44" rx="14" fill="#f3f4f6" opacity=".10"/>
    <rect x="44" y="346" width="272" height="44" rx="14" fill="#f3f4f6" opacity=".10"/>
    <rect x="44" y="404" width="272" height="54" rx="18" fill="#f97415"/>
    <circle cx="180" cy="32" r="6" fill="#e5e7eb" opacity=".45"/>
  </g>
  <g transform="translate(740 260)">
    <rect width="560" height="90" rx="18" fill="#111827" opacity=".95"/>
    <rect y="120" width="560" height="170" rx="22" fill="#f3f4f6"/>
    <rect y="320" width="560" height="170" rx="22" fill="#f3f4f6"/>
    <rect x="24" y="152" width="240" height="22" rx="11" fill="#111827" opacity=".85"/>
    <rect x="24" y="186" width="370" height="18" rx="9" fill="#6b7280" opacity=".55"/>
    <rect x="24" y="220" width="320" height="18" rx="9" fill="#6b7280" opacity=".45"/>
    <rect x="24" y="352" width="260" height="22" rx="11" fill="#111827" opacity=".85"/>
    <rect x="24" y="386" width="380" height="18" rx="9" fill="#6b7280" opacity=".55"/>
    <rect x="24" y="420" width="300" height="18" rx="9" fill="#6b7280" opacity=".45"/>
    <rect x="410" y="150" width="126" height="54" rx="16" fill="#f97415"/>
    <rect x="410" y="350" width="126" height="54" rx="16" fill="#f97415"/>
  </g>
  <g fill="#ffffff" opacity=".95">
    <text x="740" y="318" font-family="Inter, Arial, sans-serif" font-weight="800" font-size="46">Food Ordering</text>
  </g>
</svg>
