<svg xmlns="http://www.w3.org/2000/svg" width="1600" height="1000" viewBox="0 0 1600 1000" role="img" aria-label="QR menu templates">
  <defs>
    <linearGradient id="bg" x1="0" y1="0" x2="1" y2="1">
      <stop offset="0" stop-color="#111827"/>
      <stop offset="1" stop-color="#f97415"/>
    </linearGradient>
    <filter id="shadow" x="-30%" y="-30%" width="160%" height="160%">
      <feDropShadow dx="0" dy="18" stdDeviation="18" flood-color="#000" flood-opacity=".25"/>
    </filter>
  </defs>
  <rect width="1600" height="1000" rx="56" fill="url(#bg)"/>
  <g opacity=".14" fill="#fff">
    <circle cx="175" cy="170" r="90"/>
    <circle cx="1450" cy="150" r="110"/>
    <circle cx="1450" cy="880" r="150"/>
  </g>
  <g filter="url(#shadow)">
    <rect x="170" y="170" width="1260" height="660" rx="44" fill="#ffffff" opacity=".94"/>
  </g>
  <g>
    <rect x="260" y="250" width="520" height="500" rx="26" fill="#f3f4f6"/>
    <rect x="840" y="250" width="500" height="94" rx="18" fill="#111827" opacity=".95"/>
    <rect x="840" y="370" width="420" height="22" rx="11" fill="#6b7280" opacity=".55"/>
    <rect x="840" y="412" width="360" height="22" rx="11" fill="#6b7280" opacity=".45"/>
    <rect x="840" y="454" width="390" height="22" rx="11" fill="#6b7280" opacity=".40"/>
    <rect x="840" y="530" width="240" height="64" rx="18" fill="#f97415"/>
    <rect x="1100" y="530" width="240" height="64" rx="18" fill="#e5e7eb"/>
  </g>
  <g transform="translate(300 290)">
    <rect width="440" height="420" rx="22" fill="#fff"/>
    <g transform="translate(48 48)" fill="#111827">
      <rect width="120" height="120" rx="14"/>
      <rect x="224" width="120" height="120" rx="14"/>
      <rect y="224" width="120" height="120" rx="14"/>
      <rect x="224" y="224" width="40" height="40" rx="8"/>
      <rect x="304" y="224" width="40" height="40" rx="8"/>
      <rect x="224" y="304" width="40" height="40" rx="8"/>
      <rect x="304" y="304" width="40" height="40" rx="8"/>
      <rect x="168" y="168" width="40" height="40" rx="8"/>
      <rect x="168" y="304" width="40" height="40" rx="8"/>
      <rect x="304" y="168" width="40" height="40" rx="8"/>
    </g>
  </g>
  <g fill="#ffffff" opacity=".95">
    <text x="840" y="312" font-family="Inter, Arial, sans-serif" font-weight="800" font-size="46">QR Menu Templates</text>
    <text x="840" y="360" font-family="Inter, Arial, sans-serif" font-weight="500" font-size="18" opacity=".0">.</text>
  </g>
</svg>
